<?xml version="1.0" encoding="iso-8859-1"?>
<!-- Generator: Adobe Illustrator 19.0.0, SVG Export Plug-In . SVG Version: 6.00 Build 0)  -->
<svg version="1.1" id="Layer_1" xmlns="http://www.w3.org/2000/svg" xmlns:xlink="http://www.w3.org/1999/xlink" x="0px" y="0px"
	 viewBox="0 0 512.001 512.001" style="enable-background:new 0 0 512.001 512.001;" xml:space="preserve">
<path style="fill:#F6A7C5;" d="M298.813,39.539L223.094,1.68c-5.276-2.638-11.657-2.134-16.466,1.278
	c-4.209,2.987-6.734,7.9-6.734,13.058v203.437c0,4.426,3.589,8.015,8.015,8.015h96.18c4.426,0,8.015-3.589,8.015-8.015V61.045
	C312.105,51.879,307.012,43.637,298.813,39.539z"/>
<path style="fill:#F082A6;" d="M215.925,219.453V16.017c0-5.16,2.524-10.072,6.734-13.058c0.428-0.304,0.873-0.576,1.324-0.835
	l-0.889-0.445c-5.276-2.638-11.657-2.134-16.466,1.278c-4.21,2.987-6.734,7.9-6.734,13.058v203.437c0,4.426,3.589,8.015,8.015,8.015
	h16.03C219.513,227.468,215.925,223.88,215.925,219.453z"/>
<path style="fill:#9693A0;" d="M320.12,151.326H191.88c-4.426,0-8.015,3.589-8.015,8.015v152.285c0,4.426,3.589,8.015,8.015,8.015
	h128.24c4.426,0,8.015-3.589,8.015-8.015V159.341C328.135,154.914,324.547,151.326,320.12,151.326z"/>
<path style="fill:#878493;" d="M199.895,311.626V159.341c0-4.426,3.589-8.015,8.015-8.015h-16.03c-4.426,0-8.015,3.589-8.015,8.015
	v152.285c0,4.426,3.589,8.015,8.015,8.015h16.03C203.483,319.641,199.895,316.052,199.895,311.626z"/>
<path style="fill:#E6608D;" d="M352.18,343.686l-16.03-16.03h-160.3l-16.03,16.03v128.24c0,22.132,17.943,40.075,40.075,40.075
	h112.21c22.132,0,40.075-17.943,40.075-40.075V343.686z"/>
<path style="fill:#D4506F;" d="M183.865,471.926v-128.24l16.03-16.03H175.85l-16.03,16.03v128.24
	c0,22.132,17.943,40.075,40.075,40.075h24.045C201.808,512.001,183.865,494.058,183.865,471.926z"/>
<path style="fill:#FCDE76;" d="M344.165,279.566h-176.33c-4.426,0-8.015,3.589-8.015,8.015v56.105h192.36v-56.105
	C352.18,283.154,348.592,279.566,344.165,279.566z"/>
<path style="fill:#FCCF6F;" d="M191.88,279.566h-24.045c-4.426,0-8.015,3.589-8.015,8.015v56.105h24.045v-56.105
	C183.865,283.154,187.454,279.566,191.88,279.566z"/>
<circle style="fill:#FFD9E4;" cx="284.553" cy="65.163" r="15.529"/>
<g>
	<path style="fill:#FDFAB6;" d="M448.36,415.821c-13.258,0-24.045-10.787-24.045-24.045c0-4.426-3.589-8.015-8.015-8.015
		c-4.426,0-8.015,3.589-8.015,8.015c0,13.258-10.787,24.045-24.045,24.045c-4.426,0-8.015,3.589-8.015,8.015
		c0,4.426,3.589,8.015,8.015,8.015c13.258,0,24.045,10.787,24.045,24.045c0,4.426,3.589,8.015,8.015,8.015
		c4.426,0,8.015-3.589,8.015-8.015c0-13.258,10.787-24.045,24.045-24.045c4.426,0,8.015-3.589,8.015-8.015
		C456.375,419.409,452.786,415.821,448.36,415.821z"/>
	<path style="fill:#FDFAB6;" d="M119.745,247.506c-13.258,0-24.045-10.787-24.045-24.045c0-4.426-3.589-8.015-8.015-8.015
		c-4.426,0-8.015,3.589-8.015,8.015c0,13.258-10.787,24.045-24.045,24.045c-4.426,0-8.015,3.589-8.015,8.015
		s3.589,8.015,8.015,8.015c13.258,0,24.045,10.787,24.045,24.045c0,4.426,3.589,8.015,8.015,8.015c4.426,0,8.015-3.589,8.015-8.015
		c0-13.258,10.787-24.045,24.045-24.045c4.426,0,8.015-3.589,8.015-8.015C127.76,251.094,124.172,247.506,119.745,247.506z"/>
	<path style="fill:#FDFAB6;" d="M456.375,87.206c-17.678,0-32.06-14.382-32.06-32.06c0-4.426-3.589-8.015-8.015-8.015
		c-4.426,0-8.015,3.589-8.015,8.015c0,17.678-14.382,32.06-32.06,32.06c-4.426,0-8.015,3.589-8.015,8.015
		c0,4.426,3.589,8.015,8.015,8.015c17.678,0,32.06,14.382,32.06,32.06c0,4.426,3.589,8.015,8.015,8.015
		c4.426,0,8.015-3.589,8.015-8.015c0-17.678,14.382-32.06,32.06-32.06c4.426,0,8.015-3.589,8.015-8.015
		C464.39,90.795,460.802,87.206,456.375,87.206z"/>
</g>
<g>
</g>
<g>
</g>
<g>
</g>
<g>
</g>
<g>
</g>
<g>
</g>
<g>
</g>
<g>
</g>
<g>
</g>
<g>
</g>
<g>
</g>
<g>
</g>
<g>
</g>
<g>
</g>
<g>
</g>
</svg>
